<?xml version="1.0" encoding="UTF-8" standalone="no"?>
<svg
   width="400"
   height="100"
   viewBox="0 0 400 100"
   version="1.1"
   id="svg3"
   xmlns="http://www.w3.org/2000/svg"
   xmlns:svg="http://www.w3.org/2000/svg"
   xmlns:rdf="http://www.w3.org/1999/02/22-rdf-syntax-ns#"
   xmlns:cc="http://creativecommons.org/ns#"
   xmlns:dc="http://purl.org/dc/elements/1.1/">
  <title
     id="title3">YAKA Games</title>
  <defs
     id="defs3" />
  <g
     id="Logo"
     transform="translate(-918,-581.036)">
    <g
       id="g5"
       transform="translate(2,-1.25)">
      <path
         d="m 1044.816,647.03601 h -9.344 v -14.912 l -9.472,-29.888 h 8.704 l 3.968,13.632 1.344,7.872 h 0.256 l 1.344,-7.872 3.968,-13.632 h 8.704 l -9.472,29.888 z m 28.416,0 -1.344,-7.104 h -10.112 l -1.344,7.104 h -8.704 l 8.64,-44.8 h 13.248 l 8.192,44.8 z m -6.528,-36.48 -2.496,14.912 -1.408,7.616 h 8 l -1.472,-7.616 -2.496,-14.912 z m 18.816,36.48 v -44.8 h 8.768 v 18.88 h 0.32 l 8,-18.88 h 9.024 l -9.344,21.376 9.792,23.424 h -9.728 l -7.616,-19.584 h -0.448 v 19.584 z m 48.704,0 -1.344,-7.104 h -10.112 l -1.344,7.104 h -8.704 l 8.64,-44.8 h 13.248 l 8.192,44.8 z m -6.528,-36.48 -2.496,14.912 -1.408,7.616 h 8 l -1.472,-7.616 -2.496,-14.912 z m 50.3039,36.48 h -13.568 q -4.608,-4.224 -6.72,-10.048 -2.112,-5.824 -2.112,-12.16 0,-6.4 2.56,-12.608 2.56,-6.208 7.168,-9.984 h 15.552 v 7.68 h -11.904 q -1.664,1.92 -2.88,6.08 -1.216,4.096 -1.216,8.768 0,4.608 1.088,8.832 1.152,4.16 2.816,6.016 h 6.144 v -17.408 h 8.448 v 10.752 q 0,8.832 -5.376,14.08 z m 25.472,-14.784 h -6.848 q -1.344,1.664 -1.344,4.16 0,2.496 1.408,3.904 h 6.784 z m -13.76,-17.92 h 15.872 q 3.84,2.304 5.056,5.312 1.216,2.944 1.216,8.064 v 9.6 q 0,5.312 0.256,9.728 h -7.296 l -1.152,-2.304 q -2.496,2.304 -7.04,2.304 h -4.032 q -5.44,-3.584 -5.44,-10.304 0,-6.784 5.568,-10.688 h 6.016 q 2.496,0 4.672,1.536 v -3.2 q 0,-2.496 -2.176,-3.328 h -11.52 z m 41.856,0 h 4.544 l 1.6,2.24 q 1.344,-1.216 2.56,-1.728 1.28,-0.512 3.776,-0.512 h 7.104 q 2.816,3.584 3.84,7.168 1.024,3.584 1.024,8.96 v 16.576 h -8.512 v -17.216 q 0,-5.888 -1.792,-8.768 h -6.144 q 1.408,2.752 1.408,7.488 v 18.496 h -8.512 v -17.216 q 0,-6.08 -1.664,-8.768 h -4.928 v 25.984 h -8.512 v -32.704 h 6.656 l 1.152,2.304 q 1.408,-1.28 2.624,-1.792 1.28,-0.512 3.776,-0.512 z m 44.4801,6.72 h -4.8 q -0.96,1.152 -1.6,3.2 -0.576,2.048 -0.576,3.968 h 9.152 q 0.128,-1.92 -0.512,-3.968 -0.64,-2.112 -1.664,-3.2 z m 8.704,19.264 v 6.72 h -16.256 q -4.48,-3.008 -6.336,-7.424 -1.792,-4.48 -1.792,-9.024 0,-10.496 7.936,-16.256 h 10.368 q 4.288,3.136 5.824,6.656 1.536,3.52 1.536,7.104 0,3.584 -0.576,6.144 h -15.936 q 0.192,1.472 1.088,3.392 0.96,1.856 2.048,2.688 z m 7.7439,-25.984 h 14.144 v 6.72 h -9.984 l 6.08,9.024 q 4.096,5.824 4.544,8 0.256,1.024 0.256,2.112 0,4.544 -3.392,6.848 h -16.32 v -6.72 h 11.712 l -6.848,-10.048 q -0.448,-0.704 -1.408,-1.984 -0.896,-1.28 -1.408,-2.048 -0.512,-0.832 -0.704,-1.216 -0.192,-0.384 -0.512,-0.96 -0.32,-0.64 -0.448,-1.088 -0.256,-1.216 -0.256,-1.984 0,-4.672 4.544,-6.656 z"
         id="Brand"
         style="font-size:64px;font-family:'Jockey One';-inkscape-font-specification:'Jockey One, Normal'"
         aria-label="YAKA Games" />
      <path
         d="m 1035.514,650.86572 h 4.2318 q 0.6686,0 1.2526,0.1862 0.5839,0.17774 1.0071,0.55013 0.4232,0.36393 0.6686,0.91406 0.2455,0.54167 0.2455,1.26107 0,0.38086 -0.1354,0.75325 -0.127,0.3724 -0.364,0.70247 -0.2285,0.32162 -0.5416,0.57552 -0.3132,0.24545 -0.6771,0.3724 0.3808,0.0677 0.7617,0.28776 0.3809,0.22005 0.6855,0.58398 0.3047,0.36393 0.4909,0.85482 0.1947,0.48242 0.1947,1.0664 0,0.80404 -0.2455,1.43034 -0.2369,0.6263 -0.7193,1.0664 -0.4825,0.43164 -1.1934,0.66016 -0.7109,0.22851 -1.6504,0.22851 h -4.0117 z m 3.8086,10.05467 q 0.4655,0 0.8379,-0.10156 0.3808,-0.10156 0.6517,-0.33008 0.2708,-0.22851 0.4147,-0.59244 0.1523,-0.36394 0.1523,-0.88867 0,-0.53321 -0.1523,-0.88867 -0.1439,-0.36394 -0.4063,-0.58399 -0.2539,-0.22851 -0.6093,-0.32161 -0.3471,-0.0931 -0.7533,-0.0931 h -2.0228 v 3.80012 z m 0.4993,-5.07811 q 0.5925,-0.17774 0.8633,-0.67708 0.2793,-0.50782 0.2793,-1.35417 0,-0.7194 -0.4232,-1.11718 -0.4231,-0.40625 -1.1679,-0.40625 h -1.9382 v 3.55468 z m 4.8835,2.27669 q 0,-1.21875 0.2962,-2.09896 0.2962,-0.88021 0.8294,-1.44726 0.5332,-0.56706 1.2696,-0.82943 0.7448,-0.27083 1.6334,-0.27083 0.821,0 1.4642,0.2793 0.6517,0.27083 1.1003,0.77018 0.4485,0.49935 0.6855,1.19335 0.237,0.69401 0.237,1.5319 0,0.28776 -0.025,0.5332 -0.025,0.24545 -0.059,0.42318 -0.034,0.21159 -0.076,0.38086 l -5.5521,-0.0254 q 0.01,0.75325 0.1608,1.2526 0.1524,0.49089 0.4486,0.77865 0.3047,0.28775 0.7617,0.40624 0.457,0.11003 1.0833,0.11003 0.5332,0 0.9564,-0.0677 0.4232,-0.0677 0.7194,-0.16081 0.3386,-0.10156 0.6094,-0.23697 0.1269,0.29622 0.1946,0.55013 0.076,0.2539 0.1101,0.4401 0.034,0.22005 0.051,0.38932 -0.2793,0.14388 -0.6771,0.25391 -0.3386,0.0931 -0.8295,0.16927 -0.4908,0.0846 -1.1341,0.0846 -1.0156,0 -1.8112,-0.22851 -0.7871,-0.22852 -1.3372,-0.74479 -0.5417,-0.52474 -0.8294,-1.36263 -0.2793,-0.84635 -0.2793,-2.07356 z m 5.7044,-0.79558 v -0.28776 q 0,-0.5332 -0.1354,-0.93945 -0.127,-0.41471 -0.3555,-0.69401 -0.2285,-0.27929 -0.5417,-0.42317 -0.3131,-0.14388 -0.677,-0.14388 -0.5332,0 -0.9395,0.14388 -0.4062,0.13541 -0.6855,0.4401 -0.2709,0.29622 -0.4063,0.77018 -0.1354,0.47396 -0.1354,1.13411 z m 2.6829,-3.61392 h 1.9043 l 1.6504,6.32225 0.3639,1.69271 0.3724,-1.69271 1.7012,-6.32225 h 1.9636 l -3.851,12.59372 h -1.8365 l 1.4134,-3.944 h -1.0834 z m 8.709,4.32486 q 0,-1.11718 0.2962,-1.972 0.3047,-0.85482 0.8464,-1.43034 0.5501,-0.57552 1.3034,-0.87174 0.7617,-0.29622 1.6757,-0.29622 0.9395,0 1.6927,0.27929 0.7533,0.27084 1.278,0.82943 0.5248,0.55859 0.8041,1.39648 0.2793,0.82943 0.2793,1.94661 0,1.11719 -0.2878,1.98047 -0.2793,0.86328 -0.8125,1.44726 -0.5247,0.58398 -1.278,0.88867 -0.7448,0.29622 -1.6758,0.29622 -0.9648,0 -1.735,-0.27929 -0.7617,-0.28776 -1.2949,-0.84636 -0.5247,-0.56705 -0.8125,-1.40494 -0.2793,-0.84635 -0.2793,-1.96354 z m 4.1217,3.09765 q 0.5586,0 0.9649,-0.23698 0.4147,-0.24544 0.6771,-0.66862 0.2623,-0.43164 0.3893,-1.01562 0.1269,-0.59245 0.1269,-1.29492 0,-1.51497 -0.5162,-2.31054 -0.5163,-0.79557 -1.642,-0.79557 -0.567,0 -0.9902,0.24544 -0.4147,0.23698 -0.694,0.66862 -0.2708,0.43164 -0.4063,1.02408 -0.1354,0.59245 -0.1354,1.28646 0,1.5319 0.5417,2.31901 0.5501,0.77864 1.6842,0.77864 z m 5.9838,-5.87369 -0.6687,-0.68554 v -0.95638 h 1.5573 l 0.7279,0.66016 0.2454,-0.0508 q 0.059,-0.0508 0.2709,-0.17773 0.22,-0.12695 0.5332,-0.25391 0.3216,-0.12695 0.7278,-0.22005 0.4063,-0.10156 0.8548,-0.10156 0.711,0 1.2611,0.21159 0.5586,0.21159 0.9395,0.60937 0.3808,0.38932 0.5755,0.93945 0.1946,0.55013 0.1946,1.23568 v 5.89061 h -1.8196 v -5.71288 q 0,-0.92252 -0.3893,-1.35416 -0.3809,-0.4401 -1.2188,-0.4401 -0.4147,0 -0.7702,0.0762 -0.3554,0.0677 -0.6263,0.1608 -0.3131,0.10157 -0.584,0.23698 v 7.03319 h -1.8111 z m 9.0982,2.92838 q 0,-1.21028 0.3386,-2.09895 0.3385,-0.88867 0.914,-1.47265 0.584,-0.58399 1.3457,-0.86328 0.7618,-0.28776 1.6166,-0.28776 0.3216,0 0.5755,0.0339 0.2539,0.0254 0.4316,0.0677 0.2116,0.0423 0.3724,0.10156 v -3.48697 h 1.8028 v 10.78253 l 0.7448,0.86328 v 0.5332 h -1.6928 l -0.5839,-0.66862 h -0.2878 q -0.042,0.0423 -0.1777,0.17774 -0.127,0.13541 -0.3724,0.27929 -0.237,0.14388 -0.5925,0.26237 -0.347,0.11849 -0.8209,0.11849 -0.6263,0 -1.2696,-0.2539 -0.6432,-0.25391 -1.1679,-0.78711 -0.5163,-0.5332 -0.8464,-1.3457 -0.3301,-0.82096 -0.3301,-1.95508 z m 1.8959,0 q 0,0.78711 0.1608,1.3457 0.1692,0.5586 0.4739,0.92253 0.3047,0.35547 0.7448,0.52474 0.4401,0.1608 0.9903,0.1608 0.2115,0 0.4485,-0.0677 0.237,-0.0677 0.4317,-0.16081 0.2285,-0.0931 0.4485,-0.22852 v -5.72134 q -0.11,-0.0677 -0.33,-0.13542 -0.2116,-0.0677 -0.5925,-0.0677 -1.3288,0 -2.0566,0.8802 -0.7194,0.87175 -0.7194,2.54752 z m 11.9505,-1.47265 q 0,-1.44726 0.347,-2.57291 0.3554,-1.13411 1.0325,-1.90429 0.6856,-0.77865 1.6758,-1.1849 0.9987,-0.40625 2.2936,-0.40625 0.4909,0 0.9987,0.0762 0.5163,0.0677 0.9395,0.16081 0.4908,0.10156 0.9479,0.22852 -0.017,0.21159 -0.068,0.44856 -0.042,0.20313 -0.127,0.47396 -0.085,0.26237 -0.2285,0.55859 -0.3555,-0.12695 -0.7617,-0.22005 -0.347,-0.0846 -0.7956,-0.15234 -0.4401,-0.0677 -0.9056,-0.0677 -0.7871,0 -1.4219,0.32161 -0.6263,0.32162 -1.0664,0.92253 -0.4316,0.59245 -0.6686,1.4388 -0.2285,0.83789 -0.2285,1.8789 0,1.03255 0.2201,1.84505 0.22,0.8125 0.6516,1.37109 0.4317,0.55859 1.058,0.85482 0.6348,0.29622 1.4557,0.29622 0.1354,0 0.3047,0 0.1693,0 0.3385,-0.008 0.1693,-0.008 0.3301,-0.008 0.1608,-0.008 0.2878,-0.0254 0,-0.27083 -0.01,-0.58398 -0.01,-0.31315 -0.017,-0.63477 -0.01,-0.33007 -0.025,-0.65169 -0.01,-0.32161 -0.017,-0.61783 -0.034,-0.69401 -0.059,-1.39649 0.3047,-0.0846 0.5502,-0.11002 0.2539,-0.0254 0.4316,-0.0254 0.1777,0 0.347,0.0254 0.1777,0.0254 0.3216,0.0508 0.1608,0.0339 0.3047,0.0677 0,0.99869 -0.017,1.92122 -0.01,0.91406 -0.025,1.62499 -0.025,0.83789 -0.042,1.55729 l -0.1608,0.11003 q -0.4486,0.0592 -0.9226,0.10156 -0.4062,0.0423 -0.914,0.0677 -0.5078,0.0339 -1.0072,0.0339 -1.2949,0 -2.2936,-0.37239 -0.9902,-0.3724 -1.6758,-1.10872 -0.6771,-0.74479 -1.0325,-1.83659 -0.347,-1.10026 -0.347,-2.54752 z m 9.8346,3.17382 q 0,-0.70247 0.2031,-1.19335 0.2031,-0.49089 0.5925,-0.80404 0.3977,-0.31315 0.9563,-0.46549 0.5671,-0.16081 1.295,-0.20313 l 1.8873,-0.10156 v -0.67708 q 0,-0.45703 -0.085,-0.75326 -0.076,-0.29622 -0.2624,-0.47395 -0.1862,-0.17774 -0.4993,-0.24545 -0.3047,-0.0762 -0.7617,-0.0762 -0.4571,0 -0.8718,0.10156 -0.4062,0.10157 -0.7109,0.22006 -0.364,0.14388 -0.6686,0.32161 -0.1862,-0.26237 -0.2963,-0.49935 -0.11,-0.24544 -0.1692,-0.4401 -0.076,-0.22005 -0.1016,-0.42318 0.4062,-0.20312 0.8717,-0.35547 0.4063,-0.13541 0.931,-0.24544 0.5332,-0.11002 1.1172,-0.11002 0.9649,0 1.5996,0.16927 0.6348,0.16927 1.0072,0.51627 0.3808,0.33854 0.5247,0.86328 0.1524,0.51628 0.1524,1.22721 v 4.72265 l 0.7109,0.86328 v 0.5332 h -1.5658 l -0.6516,-0.75325 h -0.3047 q -0.042,0.0423 -0.2285,0.19466 -0.1778,0.14388 -0.4655,0.31315 -0.2793,0.16081 -0.6433,0.28776 -0.3554,0.12695 -0.7617,0.12695 -0.6347,0 -1.151,-0.1862 -0.5163,-0.19466 -0.8887,-0.54166 -0.3639,-0.35547 -0.5671,-0.83789 -0.1946,-0.49088 -0.1946,-1.07487 z m 1.845,-0.15234 q 0,0.38932 0.1101,0.65169 0.11,0.25391 0.3046,0.40625 0.2032,0.15234 0.4825,0.21159 0.2877,0.0592 0.6347,0.0592 0.3216,0 0.6009,-0.0762 0.2878,-0.0846 0.4994,-0.1862 0.2454,-0.11002 0.457,-0.26237 v -2.27668 l -1.7011,0.11002 q -0.3978,0.0254 -0.6687,0.13542 -0.2623,0.11002 -0.4231,0.28776 -0.1608,0.17773 -0.2286,0.42317 -0.068,0.23698 -0.068,0.51628 z m 6.627,-5.16275 v -0.95638 h 1.5573 l 0.7278,0.73633 0.2285,-0.13542 q 0.042,-0.0423 0.2455,-0.16081 0.2116,-0.12695 0.5247,-0.2539 0.3132,-0.13542 0.7025,-0.23698 0.3978,-0.10156 0.804,-0.10156 0.7533,0 1.2357,0.22005 0.4909,0.22005 0.8548,0.63476 0.1354,-0.11002 0.3978,-0.2539 0.2624,-0.15235 0.6009,-0.28776 0.347,-0.13542 0.7448,-0.22005 0.3978,-0.0931 0.804,-0.0931 0.711,0 1.295,0.21159 0.5924,0.21158 1.0071,0.60937 0.4232,0.38932 0.6517,0.93945 0.237,0.55013 0.237,1.23567 v 5.89908 h -1.8197 v -5.72134 q 0,-0.91406 -0.4909,-1.35417 -0.4908,-0.4401 -1.3372,-0.4401 -0.4993,0 -0.9394,0.0846 -0.4317,0.0762 -0.6433,0.16927 0.1185,0.27083 0.1862,0.57552 0.068,0.30468 0.068,0.61783 v 6.06835 h -1.8196 v -5.89061 q 0,-0.82096 -0.3386,-1.21875 -0.3385,-0.40625 -1.1595,-0.40625 -0.3893,0 -0.7278,0.0762 -0.3386,0.0677 -0.584,0.16081 -0.2878,0.10156 -0.5332,0.22852 v 7.05011 h -1.8112 v -7.1009 z m 14.4811,3.54622 q 0,-1.21875 0.2962,-2.09896 0.2962,-0.88021 0.8294,-1.44726 0.5332,-0.56706 1.2695,-0.82943 0.7448,-0.27083 1.6335,-0.27083 0.821,0 1.4642,0.2793 0.6517,0.27083 1.1003,0.77018 0.4485,0.49935 0.6855,1.19335 0.237,0.69401 0.237,1.5319 0,0.28776 -0.025,0.5332 -0.025,0.24545 -0.059,0.42318 -0.034,0.21159 -0.076,0.38086 l -5.5521,-0.0254 q 0.01,0.75325 0.1608,1.2526 0.1524,0.49089 0.4486,0.77865 0.3047,0.28775 0.7617,0.40624 0.457,0.11003 1.0833,0.11003 0.5332,0 0.9564,-0.0677 0.4232,-0.0677 0.7194,-0.16081 0.3385,-0.10156 0.6094,-0.23697 0.1269,0.29622 0.1946,0.55013 0.076,0.2539 0.1101,0.4401 0.034,0.22005 0.051,0.38932 -0.2793,0.14388 -0.677,0.25391 -0.3386,0.0931 -0.8295,0.16927 -0.4908,0.0846 -1.1341,0.0846 -1.0156,0 -1.8112,-0.22851 -0.7871,-0.22852 -1.3372,-0.74479 -0.5417,-0.52474 -0.8294,-1.36263 -0.2793,-0.84635 -0.2793,-2.07356 z m 5.7044,-0.79558 v -0.28776 q 0,-0.5332 -0.1354,-0.93945 -0.127,-0.41471 -0.3555,-0.69401 -0.2285,-0.27929 -0.5417,-0.42317 -0.3131,-0.14388 -0.677,-0.14388 -0.5332,0 -0.9395,0.14388 -0.4062,0.13541 -0.6855,0.4401 -0.2709,0.29622 -0.4063,0.77018 -0.1354,0.47396 -0.1354,1.13411 z m 3.1992,4.64648 q 0,-0.19466 0.034,-0.42318 0.025,-0.19466 0.076,-0.4401 0.059,-0.25391 0.1693,-0.52474 0.3724,0.14388 0.7786,0.25391 0.347,0.0931 0.7533,0.17773 0.4062,0.0762 0.804,0.0762 0.3555,0 0.6602,-0.0254 0.3047,-0.0254 0.5247,-0.13541 0.2285,-0.11849 0.3555,-0.34701 0.1269,-0.23698 0.1269,-0.65169 0,-0.49935 -0.3131,-0.78711 -0.3047,-0.28776 -1.0664,-0.43164 -0.7871,-0.15234 -1.3288,-0.40625 -0.5332,-0.2539 -0.8717,-0.58398 -0.3301,-0.33854 -0.4825,-0.75325 -0.1438,-0.41472 -0.1438,-0.88867 0,-0.71094 0.2285,-1.21029 0.2285,-0.49935 0.6601,-0.80403 0.4401,-0.31315 1.0834,-0.44857 0.6517,-0.14388 1.4895,-0.14388 0.584,0 1.0326,0.0846 0.457,0.0762 0.7617,0.16927 0.3555,0.11002 0.6179,0.2539 -0.025,0.1862 -0.093,0.40625 -0.059,0.1862 -0.1609,0.42318 -0.093,0.23698 -0.2539,0.48242 -0.2285,-0.13542 -0.5247,-0.23698 -0.2539,-0.0931 -0.6094,-0.16081 -0.3554,-0.0762 -0.8125,-0.0762 -0.3554,0 -0.6601,0.0339 -0.2962,0.0339 -0.5163,0.15234 -0.2116,0.11849 -0.3301,0.36393 -0.1185,0.23698 -0.1185,0.65169 0,0.20313 0.051,0.3724 0.059,0.1608 0.2201,0.29622 0.1692,0.13542 0.4655,0.25391 0.3046,0.11002 0.804,0.22005 0.7786,0.16927 1.2949,0.38932 0.5248,0.22005 0.8294,0.5332 0.3132,0.31315 0.4401,0.73633 0.1355,0.41471 0.1355,0.99023 0,0.61784 -0.1947,1.11719 -0.1947,0.49934 -0.6094,0.85481 -0.4147,0.35547 -1.0664,0.55013 -0.6517,0.19466 -1.5742,0.19466 -0.5924,0 -1.0833,-0.0846 -0.4824,-0.0846 -0.8379,-0.19466 -0.4147,-0.11849 -0.7448,-0.2793 z m 18.1966,-4.70572 q -0.059,-0.21159 -0.068,-0.46549 -0.01,-0.25391 -0.01,-0.38086 0,-0.14388 0.042,-0.38086 0.042,-0.23698 0.1016,-0.43164 h 4.2233 q 0,0.22005 -0.025,0.47396 -0.025,0.2539 -0.068,0.49088 -0.042,0.23698 -0.093,0.43164 -0.051,0.1862 -0.1016,0.26237 h -0.7363 q -0.034,0.39779 -0.1016,0.82943 -0.068,0.42317 -0.1777,0.83788 -0.1016,0.41472 -0.2454,0.79558 -0.1355,0.37239 -0.3132,0.66015 0.3555,0.23698 0.7363,0.47396 0.3894,0.23698 0.821,0.48242 -0.068,0.2539 -0.1608,0.49088 -0.093,0.20313 -0.2285,0.43164 -0.1354,0.22005 -0.3555,0.3724 h -0.2116 q -0.4655,-0.25391 -0.8887,-0.50781 -0.4147,-0.25391 -0.8125,-0.49935 -0.6516,0.50781 -1.5149,0.77864 -0.8548,0.2793 -1.9636,0.2793 -0.4316,0 -0.8971,-0.0846 -0.4655,-0.0846 -0.9225,-0.26237 -0.4486,-0.17773 -0.8548,-0.4401 -0.4063,-0.27083 -0.711,-0.6263 -0.3047,-0.36393 -0.4909,-0.82096 -0.1777,-0.45703 -0.1777,-1.00716 0,-0.50781 0.1439,-0.95638 0.1523,-0.45703 0.4316,-0.82942 0.2878,-0.38086 0.7025,-0.6517 0.4147,-0.27929 0.9479,-0.42317 -0.3724,-0.69401 -0.4993,-1.2526 -0.127,-0.56706 -0.127,-0.97331 0,-0.83789 0.2878,-1.43034 0.2962,-0.60091 0.7786,-0.98176 0.4824,-0.38086 1.0918,-0.5586 0.6178,-0.17773 1.2611,-0.17773 0.6432,0 1.1764,0.13542 0.5332,0.13541 0.9141,0.40624 0.3893,0.27084 0.6009,0.69401 0.22,0.42318 0.22,0.99024 -0.2369,0.0423 -0.5162,0.0762 -0.237,0.0339 -0.5502,0.0592 -0.3047,0.0254 -0.6432,0.0339 -0.017,-0.21159 -0.1185,-0.3724 -0.1016,-0.16927 -0.2793,-0.27929 -0.1777,-0.11849 -0.4147,-0.16928 -0.237,-0.0592 -0.5163,-0.0592 -0.6855,0 -1.0325,0.39779 -0.3386,0.39778 -0.3386,1.16796 0,0.2793 0.042,0.60938 0.051,0.32161 0.1946,0.70247 0.1439,0.37239 0.4063,0.80403 0.2623,0.43164 0.694,0.92253 0.4316,0.49088 1.0579,1.04948 0.6348,0.55859 1.5065,1.18489 0.127,-0.19466 0.2201,-0.4655 0.1015,-0.27083 0.1777,-0.57552 0.076,-0.31315 0.127,-0.63476 0.051,-0.33008 0.068,-0.6263 z m -1.9213,3.91015 q 0.4994,0 0.9818,-0.11003 0.4824,-0.11002 0.9225,-0.347 -1.261,-0.91406 -2.0989,-1.74349 -0.8294,-0.82942 -1.3542,-1.57421 -0.3808,0.29622 -0.6009,0.77018 -0.2116,0.46549 -0.2116,1.04101 0,0.44857 0.1947,0.8125 0.1946,0.36393 0.5247,0.61784 0.3301,0.2539 0.7533,0.39778 0.4316,0.13542 0.8886,0.13542 z m 12.6699,-10.30858 h 4.0287 q 0.8463,0 1.498,0.23698 0.6517,0.22852 1.0834,0.66016 0.4401,0.42317 0.6601,1.03255 0.2285,0.60091 0.2285,1.3457 0,0.54166 -0.1354,1.03255 -0.1354,0.48242 -0.4147,0.89713 -0.2708,0.40625 -0.7025,0.72787 -0.4231,0.32161 -1.0071,0.52473 0.3216,0.61784 0.6855,1.25261 0.3639,0.63476 0.7279,1.26952 0.3724,0.63477 0.7363,1.26953 0.3639,0.63477 0.6855,1.24414 h -2.0651 l -2.5136,-4.74804 h -0.1185 q -0.2455,0 -0.5163,-0.0169 -0.2624,-0.0254 -0.4909,-0.0508 -0.2708,-0.0339 -0.5247,-0.0762 v 4.89192 h -1.8451 z m 1.8451,5.23893 q 0.076,0.008 0.2454,0.0254 0.1778,0.008 0.3894,0.0169 0.22,0.008 0.4655,0.0169 0.2539,0 0.4824,0 1.0748,0 1.5996,-0.48242 0.5332,-0.49088 0.5332,-1.50651 0,-0.88867 -0.4824,-1.36262 -0.474,-0.47396 -1.3542,-0.47396 h -1.8789 z m 7.1178,2.01432 q 0,-1.21875 0.2962,-2.09896 0.2963,-0.88021 0.8295,-1.44726 0.5332,-0.56706 1.2695,-0.82943 0.7448,-0.27083 1.6335,-0.27083 0.8209,0 1.4641,0.2793 0.6517,0.27083 1.1003,0.77018 0.4486,0.49935 0.6856,1.19335 0.2369,0.69401 0.2369,1.5319 0,0.28776 -0.025,0.5332 -0.025,0.24545 -0.059,0.42318 -0.034,0.21159 -0.076,0.38086 l -5.552,-0.0254 q 0.01,0.75325 0.1608,1.2526 0.1523,0.49089 0.4485,0.77865 0.3047,0.28775 0.7617,0.40624 0.4571,0.11003 1.0834,0.11003 0.5332,0 0.9564,-0.0677 0.4231,-0.0677 0.7194,-0.16081 0.3385,-0.10156 0.6093,-0.23697 0.127,0.29622 0.1947,0.55013 0.076,0.2539 0.11,0.4401 0.034,0.22005 0.051,0.38932 -0.2793,0.14388 -0.6771,0.25391 -0.3385,0.0931 -0.8294,0.16927 -0.4909,0.0846 -1.1341,0.0846 -1.0156,0 -1.8112,-0.22851 -0.7871,-0.22852 -1.3373,-0.74479 -0.5416,-0.52474 -0.8294,-1.36263 -0.2793,-0.84635 -0.2793,-2.07356 z m 5.7044,-0.79558 v -0.28776 q 0,-0.5332 -0.1354,-0.93945 -0.1269,-0.41471 -0.3554,-0.69401 -0.2286,-0.27929 -0.5417,-0.42317 -0.3132,-0.14388 -0.6771,-0.14388 -0.5332,0 -0.9394,0.14388 -0.4063,0.13541 -0.6856,0.4401 -0.2708,0.29622 -0.4062,0.77018 -0.1355,0.47396 -0.1355,1.13411 z m 3.013,2.56445 q 0,-0.70247 0.2032,-1.19335 0.2031,-0.49089 0.5924,-0.80404 0.3978,-0.31315 0.9564,-0.46549 0.5671,-0.16081 1.2949,-0.20313 l 1.8874,-0.10156 v -0.67708 q 0,-0.45703 -0.085,-0.75326 -0.076,-0.29622 -0.2623,-0.47395 -0.1862,-0.17774 -0.4994,-0.24545 -0.3047,-0.0762 -0.7617,-0.0762 -0.457,0 -0.8717,0.10156 -0.4063,0.10157 -0.711,0.22006 -0.3639,0.14388 -0.6686,0.32161 -0.1862,-0.26237 -0.2962,-0.49935 -0.11,-0.24544 -0.1693,-0.4401 -0.076,-0.22005 -0.1015,-0.42318 0.4062,-0.20312 0.8717,-0.35547 0.4063,-0.13541 0.931,-0.24544 0.5332,-0.11002 1.1172,-0.11002 0.9648,0 1.5996,0.16927 0.6347,0.16927 1.0071,0.51627 0.3809,0.33854 0.5248,0.86328 0.1523,0.51628 0.1523,1.22721 v 4.72265 l 0.711,0.86328 v 0.5332 h -1.5658 l -0.6517,-0.75325 h -0.3047 q -0.042,0.0423 -0.2285,0.19466 -0.1777,0.14388 -0.4655,0.31315 -0.2793,0.16081 -0.6432,0.28776 -0.3555,0.12695 -0.7617,0.12695 -0.6348,0 -1.1511,-0.1862 -0.5162,-0.19466 -0.8886,-0.54166 -0.364,-0.35547 -0.5671,-0.83789 -0.1947,-0.49088 -0.1947,-1.07487 z m 1.8451,-0.15234 q 0,0.38932 0.11,0.65169 0.11,0.25391 0.3047,0.40625 0.2031,0.15234 0.4824,0.21159 0.2878,0.0592 0.6348,0.0592 0.3216,0 0.6009,-0.0762 0.2878,-0.0846 0.4994,-0.1862 0.2454,-0.11002 0.457,-0.26237 v -2.27668 l -1.7012,0.11002 q -0.3978,0.0254 -0.6686,0.13542 -0.2624,0.11002 -0.4232,0.28776 -0.1608,0.17773 -0.2285,0.42317 -0.068,0.23698 -0.068,0.51628 z m 7.0586,-9.55532 h 1.7519 v 10.75714 l 0.4994,0.35547 v 1.0664 h -0.4824 l -0.017,-0.0169 v 0.0169 q -0.8379,0 -1.2949,-0.33854 -0.457,-0.33854 -0.457,-1.11718 z m 5.205,2.0651 q -0.2369,0 -0.4485,-0.0846 -0.2031,-0.0846 -0.3639,-0.22851 -0.1524,-0.14388 -0.2455,-0.33008 -0.093,-0.19466 -0.093,-0.41471 0,-0.22852 0.093,-0.42318 0.093,-0.19466 0.2455,-0.33854 0.1608,-0.14388 0.3639,-0.22005 0.2116,-0.0846 0.4485,-0.0846 0.237,0 0.4486,0.0846 0.2116,0.0762 0.3639,0.22005 0.1609,0.14388 0.254,0.33854 0.093,0.19466 0.093,0.42318 0,0.22005 -0.093,0.41471 -0.093,0.1862 -0.254,0.33008 -0.1523,0.14388 -0.3639,0.22851 -0.2116,0.0846 -0.4486,0.0846 z m -0.9733,1.46419 h 1.7605 v 7.22785 l 0.4993,0.35547 v 1.0664 h -0.4824 l -0.017,-0.0169 v 0.0169 q -0.8379,0 -1.3034,-0.33854 -0.4571,-0.33854 -0.4571,-1.11718 z m 4.7565,1.31185 h -1.1087 q -0.01,-0.0931 -0.017,-0.20313 -0.01,-0.0931 -0.017,-0.22005 0,-0.12695 0,-0.2793 0,-0.15234 0.01,-0.27929 0.01,-0.13542 0.025,-0.33008 h 1.1087 v -1.3457 l 0.9734,-1.10026 h 0.7532 v 2.44596 h 2.3952 q 0.017,0.0846 0.025,0.20312 0.017,0.11849 0.017,0.22852 0,0.19466 -0.042,0.35547 -0.034,0.1608 -0.076,0.27929 -0.051,0.13542 -0.1185,0.24545 h -2.2005 v 4.90884 q 0,0.61784 0.2031,0.89713 0.2116,0.2793 0.6687,0.2793 0.1946,0 0.4062,-0.0423 0.2201,-0.0508 0.4147,-0.11849 0.2201,-0.0762 0.4486,-0.16927 0.1693,0.22005 0.2623,0.43164 0.1016,0.21159 0.1439,0.38086 0.051,0.19466 0.059,0.36393 -0.237,0.16081 -0.5332,0.28776 -0.2624,0.11003 -0.6263,0.19466 -0.364,0.0931 -0.8379,0.0931 -0.6602,0 -1.1087,-0.16927 -0.4401,-0.16081 -0.7194,-0.48242 -0.2709,-0.33008 -0.3894,-0.8125 -0.1185,-0.49088 -0.1185,-1.12565 z m 4.9597,-1.31185 h 1.9043 l 1.6503,6.32225 0.364,1.69271 0.3724,-1.69271 1.7011,-6.32225 h 1.9636 l -3.8509,12.59372 h -1.8366 l 1.4134,-3.944 h -1.0833 z"
         id="Baseline"
         style="font-size:17.3333px;font-family:Basic;-inkscape-font-specification:'Basic, Normal'"
         aria-label="Beyond Games &amp; Reality" />
    </g>
    <g
       id="Icon"
       transform="matrix(0.9,0,0,0.9,923,586.432)">
      <g
         id="Robot"
         transform="translate(13,25.56)">
        <g
           id="Group_1"
           data-name="Group 1">
          <path
             id="Path_2"
             data-name="Path 2"
             d="M 44.258,34 A 9.167,9.167 0 1 0 53.516,43.167 9.222,9.222 0 0 0 44.258,34 Z m 0,12.222 a 3.056,3.056 0 1 1 3.086,-3.056 3.074,3.074 0 0 1 -3.086,3.056 z"
             transform="translate(6.662,-18.728)" />
          <path
             id="Path_3"
             data-name="Path 3"
             d="M 26.258,34 A 9.167,9.167 0 1 0 35.516,43.167 9.222,9.222 0 0 0 26.258,34 Z m 0,12.222 a 3.056,3.056 0 1 1 3.086,-3.056 3.074,3.074 0 0 1 -3.086,3.056 z"
             transform="translate(-3.113,-18.728)" />
          <path
             id="Path_4"
             data-name="Path 4"
             d="M 74.818,29.111 57.829,25.384 a 60.026,60.026 0 0 0 -25.591,0 l -17,3.729 A 9.146,9.146 0 0 0 8,38.069 V 59.9 a 9.15,9.15 0 0 0 7.248,8.957 l 17.016,3.733 1.109,0.231 a 3.009,3.009 0 0 0 0.626,0.066 3.1,3.1 0 0 0 2.048,-0.77 l 6.666,-5.851 c 0.046,-0.04 0.091,-0.082 0.134,-0.125 a 3.116,3.116 0 0 1 4.37,0 c 0.043,0.041 0.089,0.084 0.134,0.124 l 6.666,5.851 a 3.108,3.108 0 0 0 2.676,0.706 L 74.824,68.854 A 9.145,9.145 0 0 0 82.066,59.9 V 38.069 A 9.148,9.148 0 0 0 74.818,29.112 Z M 75.894,59.9 a 3.052,3.052 0 0 1 -2.412,2.99 L 56.945,66.519 51.51,61.748 a 9.344,9.344 0 0 0 -12.954,0 L 33.121,66.519 16.592,62.893 A 3.057,3.057 0 0 1 14.172,59.9 V 38.069 a 3.056,3.056 0 0 1 2.41,-2.991 l 16.99,-3.728 a 53.752,53.752 0 0 1 22.92,0 l 16.981,3.726 a 3.057,3.057 0 0 1 2.419,2.993 z"
             transform="translate(-8,-24.004)" />
        </g>
      </g>
      <g
         id="Ellipse_1"
         data-name="Ellipse 1"
         transform="translate(0,-0.44)"
         fill="none"
         stroke="#000000"
         stroke-width="5">
        <circle
           cx="50"
           cy="50"
           r="50"
           stroke="none"
           id="circle2" />
        <circle
           cx="50"
           cy="50"
           r="47.5"
           fill="none"
           id="circle3" />
      </g>
    </g>
  </g>
  <metadata
     id="metadata3">
    <rdf:RDF>
      <cc:Work
         rdf:about="">
        <dc:title>YAKA Games</dc:title>
        <dc:date>02/19/2024</dc:date>
        <dc:creator>
          <cc:Agent>
            <dc:title>Laurent LEFEVRE</dc:title>
          </cc:Agent>
        </dc:creator>
        <dc:publisher>
          <cc:Agent>
            <dc:title>LYDDE Group</dc:title>
          </cc:Agent>
        </dc:publisher>
        <dc:description>YAKA Games logo</dc:description>
      </cc:Work>
    </rdf:RDF>
  </metadata>
</svg>
