<?xml version="1.0" standalone="no"?>
<!DOCTYPE svg PUBLIC "-//W3C//DTD SVG 20010904//EN"
 "http://www.w3.org/TR/2001/REC-SVG-20010904/DTD/svg10.dtd">
<svg version="1.0" xmlns="http://www.w3.org/2000/svg"
 width="700.000000pt" height="700.000000pt" viewBox="0 0 700.000000 700.000000"
 preserveAspectRatio="xMidYMid meet">
<metadata>
Created by potrace 1.14, written by Peter Selinger 2001-2017
</metadata>
<g transform="translate(0.000000,700.000000) scale(0.100000,-0.100000)"
fill="#000000" stroke="none">
<path d="M3387 6574 c-1 0 -51 -4 -112 -8 -60 -4 -121 -8 -135 -10 -14 -2 -46
-7 -70 -10 -195 -27 -508 -104 -625 -155 -11 -5 -63 -26 -115 -46 -288 -113
-629 -327 -878 -550 -397 -356 -702 -819 -870 -1320 -36 -109 -83 -284 -97
-360 -35 -200 -42 -251 -52 -385 -12 -170 -6 -497 11 -587 3 -12 7 -48 11 -80
3 -32 8 -65 10 -73 2 -8 7 -31 10 -50 52 -306 176 -645 352 -965 54 -97 232
-358 263 -385 3 -3 21 -25 40 -50 164 -211 472 -481 742 -650 313 -196 760
-369 1074 -415 22 -4 46 -8 54 -10 8 -2 38 -7 65 -10 28 -4 61 -8 75 -11 141
-23 541 -23 720 1 19 2 58 7 85 11 72 8 314 60 399 85 596 175 1079 487 1501
969 64 73 165 209 227 305 89 138 98 153 171 295 221 433 331 893 331 1385 0
118 -10 321 -18 360 -2 11 -7 45 -10 76 -4 31 -9 67 -11 80 -3 13 -8 38 -11
54 -3 17 -11 58 -19 91 -8 34 -16 73 -19 85 -40 195 -181 549 -313 784 -59
105 -179 280 -273 399 -267 337 -635 633 -1038 835 -246 123 -595 237 -847
275 -195 29 -294 38 -478 40 -81 1 -148 1 -150 0z m393 -318 c14 -2 48 -7 75
-10 48 -6 132 -20 185 -31 14 -3 35 -7 48 -9 12 -3 30 -7 40 -10 9 -3 28 -7
42 -10 165 -32 481 -157 680 -269 92 -52 316 -199 330 -216 3 -3 23 -19 45
-36 66 -49 104 -83 245 -225 291 -292 509 -640 646 -1034 32 -92 90 -303 100
-364 2 -15 7 -38 9 -52 27 -143 39 -294 40 -490 0 -147 -11 -345 -19 -360 -2
-3 -7 -29 -10 -59 -4 -30 -9 -64 -11 -75 -3 -12 -7 -32 -9 -46 -9 -56 -71
-290 -86 -325 -4 -11 -25 -67 -46 -125 -85 -235 -259 -537 -431 -750 -66 -82
-266 -289 -348 -361 -151 -131 -369 -276 -567 -375 -137 -69 -393 -169 -484
-189 -10 -2 -48 -11 -84 -20 -184 -45 -260 -58 -445 -74 -87 -8 -429 -6 -490
2 -16 3 -55 7 -85 11 -30 3 -64 8 -75 10 -11 2 -40 7 -65 11 -69 11 -67 11
-195 43 -275 70 -527 179 -804 347 -129 78 -325 238 -461 374 -130 130 -168
174 -249 281 -31 41 -58 77 -61 80 -10 9 -96 144 -137 215 -165 285 -283 613
-333 925 -6 41 -14 86 -16 100 -25 144 -25 585 0 717 2 10 7 41 10 68 39 286
164 647 326 940 32 57 178 278 212 320 97 120 149 178 252 280 135 133 155
151 241 215 33 25 62 48 65 51 3 4 61 43 130 88 303 199 642 334 995 400 146
27 165 30 265 37 47 3 87 8 89 10 5 4 406 -4 441 -10z"/>
<path d="M3317 4974 c-1 -1 -42 -5 -92 -8 -49 -3 -101 -8 -115 -10 -14 -3 -49
-7 -79 -10 -29 -3 -79 -10 -110 -15 -31 -6 -72 -13 -91 -16 -39 -7 -509 -109
-580 -126 -25 -6 -56 -13 -70 -16 -14 -2 -83 -17 -155 -33 -71 -16 -141 -31
-155 -33 -14 -3 -43 -10 -65 -15 -22 -6 -51 -13 -65 -16 -14 -2 -46 -9 -72
-15 -230 -53 -394 -226 -436 -461 -5 -25 -8 -378 -7 -785 1 -642 3 -747 17
-791 59 -190 180 -321 353 -383 48 -17 332 -83 445 -104 14 -3 86 -19 160 -35
119 -27 329 -73 532 -117 84 -19 120 -19 162 -1 27 11 352 287 466 394 45 43
107 65 163 59 49 -6 94 -34 182 -112 17 -15 56 -50 88 -78 33 -29 71 -63 87
-77 193 -173 214 -188 273 -196 40 -6 92 4 539 102 13 3 32 7 43 9 11 3 83 19
160 36 77 17 151 33 165 35 179 35 345 80 409 110 143 69 258 215 296 375 22
96 22 1504 0 1598 -24 99 -80 197 -156 273 -104 103 -199 141 -514 204 -39 8
-441 95 -485 105 -194 45 -309 70 -390 85 -14 2 -47 9 -75 14 -27 5 -68 12
-90 15 -22 3 -51 7 -65 10 -14 2 -50 6 -80 9 -30 3 -82 8 -115 12 -54 6 -473
13 -478 8z m508 -388 c17 -2 55 -7 85 -11 56 -6 173 -26 265 -44 51 -10 529
-114 600 -131 22 -5 105 -23 185 -40 80 -17 156 -34 170 -37 14 -3 34 -8 45
-10 127 -24 193 -68 215 -143 13 -47 14 -1412 0 -1460 -11 -39 -41 -77 -82
-103 -15 -9 -121 -37 -235 -62 -114 -26 -319 -70 -454 -100 -135 -30 -261 -57
-280 -60 -19 -3 -49 -10 -67 -16 -31 -10 -36 -8 -100 48 -37 32 -72 62 -78 68
-6 5 -40 35 -75 65 -35 30 -84 73 -109 95 -66 60 -108 89 -170 117 -166 77
-362 67 -522 -24 -57 -33 -74 -48 -316 -261 -73 -64 -136 -116 -140 -113 -4 2
-23 7 -42 10 -20 3 -98 19 -175 36 -77 17 -192 42 -255 56 -63 14 -155 34
-205 45 -49 12 -99 23 -110 25 -99 18 -250 56 -272 68 -38 19 -68 54 -85 96
-21 51 -20 1452 1 1490 19 36 52 70 82 86 25 12 167 48 324 80 39 7 111 23
160 34 133 31 367 82 390 85 11 2 81 17 155 34 75 17 153 33 175 37 22 3 42 7
45 9 3 2 37 6 75 10 39 4 73 9 76 11 3 1 43 6 90 10 46 3 86 8 87 9 6 5 513
-3 547 -9z"/>
<path d="M2523 4020 c-205 -53 -367 -212 -417 -410 -73 -296 107 -601 404
-681 62 -17 220 -20 275 -6 262 70 437 302 430 567 -6 211 -133 401 -327 493
-47 22 -70 30 -128 44 -54 12 -173 9 -237 -7z m236 -398 c111 -89 101 -243
-20 -311 -159 -90 -338 87 -254 250 18 35 35 51 89 82 47 28 137 18 185 -21z"/>
<path d="M4250 4024 c-125 -28 -210 -76 -295 -165 -103 -110 -155 -240 -155
-387 1 -217 120 -408 315 -502 223 -108 466 -68 641 105 353 351 114 945 -385
960 -36 1 -91 -4 -121 -11z m183 -380 c74 -38 109 -92 110 -168 1 -86 -51
-156 -133 -180 -184 -55 -319 172 -183 308 54 55 142 72 206 40z"/>
</g>
</svg>
